<svg data-v-322ee1ea="" xmlns="http://www.w3.org/2000/svg" xmlns:xlink="http://www.w3.org/1999/xlink" width="60" height="60" viewBox="0 0 60 60" class="icon"><defs><path fill="#F15A24" id="ll8igysq3a" d="M18.75 36.395c0 1.25.554 2.373 1.421 3.154v2.53c0 .782.64 1.421 1.421 1.421h1.421c.782 0 1.421-.64 1.421-1.421v-1.421h11.369v1.42c0 .783.64 1.422 1.42 1.422h1.422c.781 0 1.42-.64 1.42-1.421v-2.53c.868-.781 1.422-1.904 1.422-3.154v-14.21c0-4.974-5.088-5.685-11.369-5.685-6.28 0-11.368.71-11.368 5.684v14.21zm4.974 1.42c-1.18 0-2.132-.951-2.132-2.13 0-1.18.952-2.132 2.132-2.132 1.18 0 2.131.952 2.131 2.131 0 1.18-.952 2.132-2.131 2.132zm12.79 0c-1.18 0-2.132-.951-2.132-2.13 0-1.18.952-2.132 2.131-2.132 1.18 0 2.132.952 2.132 2.131 0 1.18-.952 2.132-2.132 2.132zm2.13-8.526H21.593v-7.105h17.053v7.105z"></path></defs> <g fill="none" fill-rule="evenodd"><circle cx="30" cy="30" r="30" fill="#F2754E"></circle> <circle cx="30" cy="30" r="28.5" fill="#FFF" fill-rule="nonzero"></circle> <circle cx="30" cy="30" r="24" fill="#FCDED3" fill-rule="nonzero"></circle> <use fill="#F2754E" fill-rule="nonzero" xlink:href="#ll8igysq3a"></use></g></svg>