<svg data-v-322ee1ea="" xmlns="http://www.w3.org/2000/svg" xmlns:xlink="http://www.w3.org/1999/xlink" width="80" height="80" viewBox="0 0 80 80" class="icon"><defs><path id="prefix__a" d="M46.13 16.87l.023-.023-8.68-8.68L35 10.64l4.923 4.923c-2.193.84-3.756 2.94-3.756 5.437 0 3.22 2.613 5.833 5.833 5.833.84 0 1.61-.186 2.333-.49v16.824c0 1.283-1.05 2.333-2.333 2.333-1.283 0-2.333-1.05-2.333-2.333v-10.5C39.667 30.1 37.567 28 35 28h-2.333V11.667C32.667 9.1 30.567 7 28 7H14c-2.567 0-4.667 2.1-4.667 4.667V49h23.334V31.5h3.5v11.667C36.167 46.387 38.78 49 42 49s5.833-2.613 5.833-5.833V21c0-1.61-.653-3.08-1.703-4.13zM28 23.333H14V11.667h14v11.666zm14 0c-1.283 0-2.333-1.05-2.333-2.333 0-1.283 1.05-2.333 2.333-2.333 1.283 0 2.333 1.05 2.333 2.333 0 1.283-1.05 2.333-2.333 2.333z"></path></defs> <g fill="none" fill-rule="evenodd"><circle cx="40" cy="40" r="39.25" stroke="#F15A24" stroke-width="1.5"></circle> <circle cx="40" cy="40" r="32" fill="#F15A24" fill-rule="nonzero" opacity=".2"></circle> <g transform="translate(12 12)"><mask id="prefix__b" fill="#fff"><use xlink:href="#prefix__a"></use></mask> <g fill="#F15A24" mask="url(#prefix__b)"><path d="M0 0H56V56H0z"></path></g></g></g></svg>